<?xml version="1.0" encoding="UTF-8" standalone="no"?>
<svg
   xmlns:dc="http://purl.org/dc/elements/1.1/"
   xmlns:cc="http://creativecommons.org/ns#"
   xmlns:rdf="http://www.w3.org/1999/02/22-rdf-syntax-ns#"
   xmlns:svg="http://www.w3.org/2000/svg"
   xmlns="http://www.w3.org/2000/svg"
   viewBox="0 0 6912 3456"
   height="3456"
   width="6912"
   xml:space="preserve"
   id="svg2"
   version="1.1"><metadata
     id="metadata8"><rdf:RDF><cc:Work
         rdf:about=""><dc:format>image/svg+xml</dc:format><dc:type
           rdf:resource="http://purl.org/dc/dcmitype/StillImage" /></cc:Work></rdf:RDF></metadata><defs
     id="defs6"><clipPath
       id="clipPath14"
       clipPathUnits="userSpaceOnUse"><path
         id="path12"
         d="M 0,7.919999 H 5184 V 2599.92 H 0 Z" /></clipPath><clipPath
       id="clipPath26"
       clipPathUnits="userSpaceOnUse"><path
         style="clip-rule:evenodd"
         id="path24"
         d="M 0,0 H 21600 V 10800 H 0 Z" /></clipPath><clipPath
       id="clipPath38"
       clipPathUnits="userSpaceOnUse"><path
         style="clip-rule:evenodd"
         id="path36"
         d="M 0,0 H 21600 V 10800 H 0 Z" /></clipPath><clipPath
       id="clipPath50"
       clipPathUnits="userSpaceOnUse"><path
         style="clip-rule:evenodd"
         id="path48"
         d="M 0,0 H 21600 V 10800 H 0 Z" /></clipPath><clipPath
       id="clipPath68"
       clipPathUnits="userSpaceOnUse"><path
         style="clip-rule:evenodd"
         id="path66"
         d="M 14427.921,1439.8455 H 21600 v 8178.4668 h -7172.079 z" /></clipPath><clipPath
       id="clipPath86"
       clipPathUnits="userSpaceOnUse"><path
         id="path84"
         d="M 0,0 H 21600 V 10800 H 0 Z" /></clipPath><clipPath
       id="clipPath92"
       clipPathUnits="userSpaceOnUse"><path
         id="path90"
         d="M 0,0 H 21600 V 10800 H 0 Z" /></clipPath><clipPath
       id="clipPath98"
       clipPathUnits="userSpaceOnUse"><path
         id="path96"
         d="m 15302.273,2431.6929 h 1780.901 v 1780.9019 h -1780.901 z" /></clipPath><clipPath
       id="clipPath104"
       clipPathUnits="userSpaceOnUse"><path
         id="path102"
         d="m 16192.724,2431.6929 c -491.783,0 -890.451,398.6684 -890.451,890.4509 0,491.7825 398.668,890.4509 890.451,890.4509 491.782,0 890.45,-398.6684 890.45,-890.4509 0,-491.7825 -398.668,-890.4509 -890.45,-890.4509 z" /></clipPath><clipPath
       id="clipPath116"
       clipPathUnits="userSpaceOnUse"><path
         id="path114"
         d="M 0,0 H 21600 V 10800 H 0 Z" /></clipPath><clipPath
       id="clipPath122"
       clipPathUnits="userSpaceOnUse"><path
         id="path120"
         d="M 0,0 H 21600 V 10800 H 0 Z" /></clipPath><clipPath
       id="clipPath128"
       clipPathUnits="userSpaceOnUse"><path
         id="path126"
         d="m 15302.273,2431.6929 h 1781.981 v 1781.981 h -1781.981 z" /></clipPath><clipPath
       id="clipPath134"
       clipPathUnits="userSpaceOnUse"><path
         id="path132"
         d="m 15302.273,2431.6926 h 1780.86 v 1780.8601 h -1780.86 z" /></clipPath><clipPath
       id="clipPath140"
       clipPathUnits="userSpaceOnUse"><path
         id="path138"
         d="m 16192.703,2431.6926 c -491.771,0 -890.43,398.6592 -890.43,890.4302 0,491.771 398.659,890.4299 890.43,890.4299 491.77,0 890.43,-398.6589 890.43,-890.4299 0,-491.771 -398.66,-890.4302 -890.43,-890.4302 z" /></clipPath><clipPath
       id="clipPath152"
       clipPathUnits="userSpaceOnUse"><path
         style="clip-rule:evenodd"
         id="path150"
         d="m 15748.837,2811.8979 h 889.198 v 889.1978 h -889.198 z" /></clipPath></defs><g
     clip-path="url(#clipPath14)"
     transform="matrix(1.3333333,0,0,-1.3333333,0,3466.56)"
     id="g10"><g
       id="g16"><g
         transform="matrix(0.23999999,0,0,-0.23999999,0,2599.9199)"
         id="g18"><g
           id="g20"><g
             clip-path="url(#clipPath26)"
             id="g22"><g
               transform="scale(3.125)"
               id="g28"><path
                 id="path30"
                 style="fill:#ffffff;fill-opacity:1;fill-rule:nonzero;stroke:none"
                 d="M 0,0 H 6912 V 3456 H 0 Z" /></g></g></g><g
           id="g32"><g
             clip-path="url(#clipPath38)"
             id="g34"><g
               transform="scale(3.125)"
               id="g40"><path
                 id="path42"
                 style="fill:#09090b;fill-opacity:1;fill-rule:nonzero;stroke:none"
                 d="M 0,0 H 6912 V 3456 H 0 Z" /></g></g></g><g
           id="g44"><g
             clip-path="url(#clipPath50)"
             id="g46"><g
               transform="matrix(144.6638,0,0,144.6638,396.1373,1922.5706)"
               id="g52"><text
                 id="text56"
                 style="font-variant:normal;font-weight:bold;font-size:24.70999908px;font-family:Inter;-inkscape-font-specification:Inter-Bold;writing-mode:lr-tb;fill:#ffffff;fill-opacity:1;fill-rule:nonzero;stroke:none"
                 transform="translate(0,20)"><tspan
                   id="tspan54"
                   y="0"
                   x="0 16.176254 38.703705 53.037766 63.626022">Smart</tspan></text>
<text
                 id="text60"
                 style="font-variant:normal;font-weight:bold;font-size:24.70999908px;font-family:Inter;-inkscape-font-specification:Inter-Bold;writing-mode:lr-tb;fill:#ffffff;fill-opacity:1;fill-rule:nonzero;stroke:none"
                 transform="translate(0,42)"><tspan
                   id="tspan58"
                   y="0"
                   x="0 16.211349 30.97525 44.853149 60.213577 82.741028">Resume</tspan></text>
</g></g></g><g
           id="g62"><g
             clip-path="url(#clipPath68)"
             id="g64"><g
               transform="matrix(16.520008,0,0,16.520008,14441.138,1456.4351)"
               id="g70"><path
                 id="path72"
                 style="fill:#cb6ce6;fill-opacity:1;fill-rule:nonzero;stroke:none"
                 d="M 463.25,73.860001 414.35001,447.89001 c -1.07999,8.28 -8.19001,14.53 -16.51999,14.53 -0.73001,0 -1.45999,-0.05 -2.19001,-0.14001 l -147.66999,-19.31 -16.16001,39.15 c -2.19,5.29998 -7.3,8.72 -13.03999,8.72 -1.84,0 -3.64999,-0.35999 -5.37,-1.07001 -7.19,-2.95999 -10.61999,-11.22 -7.64999,-18.41 l 13.34,-32.34 L 84.43,449 l 0.07,1 c 0,0.01 0,0.02 0,0.03 0.01,0.13 -0.01,0.25 -0.05,0.35998 -0.04,0.12 -0.110001,0.23999 -0.190002,0.32999 -0.05,0.06 -0.120003,0.10001 -0.180001,0.14002 -0.04,0.03 -0.07,0.07 -0.120003,0.1 -0.120002,0.06 -0.239997,0.10001 -0.379997,0.10999 -0.02,0 -0.05,0 -0.07,0 -0.519997,0 -0.96,-0.4 -1,-0.93 l -0.07,-0.92001 -0.1,-1.35998 -53.049999,-42.31 -1.469999,0.10998 -1.08,0.08 c -0.540001,0.04 -1.030001,-0.37 -1.07,-0.92001 -0.04,-0.54999 0.370001,-1.03 0.92,-1.07001 l 1,-0.07 L 1.0499999,45.009998 C 0.27000001,34.470001 8.2200003,25.25 18.76,24.469999 L 137.47,15.69 l 0.09,-0.02 c 1.32,-0.34 2.69999,-0.51 4.08,-0.51 0.56,0 1.11999,0.03 1.67999,0.08 l 0.09,0.01 191.79002,-14.1999991 c 0.48001,-0.04 0.95999,-0.05 1.44,-0.05 9.97001,0 18.37,7.8000003 19.10001,17.7600001 l 0.97,13.09 c -0.04,-0.549999 0.37,-1.03 0.92002,-1.069999 0.39999,-0.04 0.77999,0.19 0.95999,0.540001 0.06,0.12 0.1,0.25 0.10998,0.379999 l 0.01,0.11 0.07,1 37.07001,1.170002 c 8.60998,0.270001 15.54001,6.950001 16.11999,15.529999 l 0.06,0.82 0.45001,0.06 c 0.15,-0.09 0.32001,-0.16 0.51001,-0.16 0.02,0 0.03,-0.01 0.05,-0.01 0.29001,0.01 0.54001,0.139999 0.70999,0.34 l 35.12,4.59 c 4.42001,0.580002 8.35,2.84 11.07,6.380001 2.70996,3.539994 3.87998,7.919991 3.30997,12.329995 z" /><path
                 id="path74"
                 style="fill:#ffffff;fill-opacity:1;fill-rule:nonzero;stroke:none"
                 d="M 144.96001,102.39 C 143.16,78.089996 122.00001,59.849998 97.700012,61.649998 73.400009,63.449997 55.160011,84.610001 56.960011,108.91 c 1.799999,24.29999 22.960002,42.54 47.259999,40.73999 24.29999,-1.8 42.53998,-22.95999 40.74,-47.25999 z M 132.53,133.13 c -0.49001,0.25 -1.09,0.05 -1.34,-0.44 -4.26,-8.47 -12.39,-14.44 -21.73999,-15.97999 -0.41001,-0.07 -0.74,-0.38 -0.82001,-0.79 -0.08,-0.41001 0.1,-0.82 0.45,-1.04001 4.65,-2.88999 7.29,-8.06999 6.89,-13.51 -0.6,-8.05 -7.63,-14.099996 -15.67,-13.509999 -3.899998,0.290001 -7.449994,2.080001 -9.999997,5.040001 C 87.75,95.860001 86.5,99.639999 86.790001,103.54 c 0.400001,5.44 3.769997,10.18 8.800003,12.35 0.379997,0.17 0.620003,0.55 0.599998,0.97 -0.02,0.42 -0.300003,0.78 -0.690002,0.9 -9.400002,3.02 -16.660004,10.47 -19.440002,19.94 -0.129998,0.44 -0.529999,0.72 -0.96,0.72 -0.09,0 -0.190002,-0.01 -0.279998,-0.04 -0.529999,-0.16 -0.830002,-0.71 -0.680001,-1.24 2.739998,-9.36 9.599999,-16.87 18.57,-20.49 -4.540001,-2.77 -7.510002,-7.56 -7.909996,-12.96 -0.330002,-4.429998 1.089996,-8.719999 3.989998,-12.089994 2.900001,-3.370003 6.940002,-5.400001 11.369999,-5.730003 9.14,-0.680001 17.14,6.209999 17.82,15.359997 0.4,5.4 -1.83,10.57 -5.91999,13.98001 9.01999,2.18 16.73,8.25 20.92999,16.6 0.23,0.46999 0.03,1.06999 -0.46,1.31999 z" /><path
                 id="path76"
                 style="fill:#ffffff;fill-opacity:1;fill-rule:nonzero;stroke:none"
                 d="m 373.66,233.88 c -0.72,-1.08 -1.47,-2.16 -2.23999,-3.21 -9.51999,-13.01 -22.61999,-23.64 -38.61999,-30.24001 -27.70999,-11.42999 -57.82001,-8.14999 -81.65,6.22 -1.21,0.73 -2.39999,1.48 -3.57,2.27001 -9.27001,6.2 -17.45999,14.14 -24.03,23.6 -0.48,0.7 -0.96001,1.4 -1.42,2.11 -3.07001,4.7 -5.75,9.75 -7.97,15.13001 -1.02001,2.48 -1.92,4.97 -2.71001,7.48001 -0.21,0.67999 -0.42,1.37 -0.61999,2.04999 -6.29,21.76999 -4.04,44.38 5.11,63.82999 0.31,0.64999 0.61999,1.29 0.94,1.94 3.75,7.51001 8.53999,14.5 14.27,20.76999 0.58001,0.63 1.17,1.26001 1.76,1.86999 5.03999,5.20999 10.75999,9.85001 17.10001,13.79999 l -32.46001,78.66 -12.73,30.84 c -3.17999,7.70999 0.49001,16.53 8.2,19.72 7.71001,3.17999 16.53,-0.48999 19.72,-8.20001 l 15.86,-38.44 0.82001,-1.98001 0.78999,-1.9 0.61,-1.48001 0.85001,-2.07001 26.25001,-63.61001 c 39.79001,9.13 81.38001,-9.63001 100.60999,-46.23999 0.60001,-1.15 1.19,-2.31 1.75,-3.48999 0.64999,-1.38001 1.26999,-2.78 1.85998,-4.20002 12.00998,-29.12991 7.78998,-60.87991 -8.48001,-85.22992 z m -12.79,76.41999 C 346.57001,344.94 306.89999,361.44 272.26001,347.13998 c -34.64,-14.29998 -51.14,-53.97 -36.84,-88.61001 14.30001,-34.64 53.97,-51.14 88.61002,-36.84 C 358.67001,235.98 375.17001,275.66 360.87,310.29999 Z" /><path
                 id="path78"
                 style="fill:#09090b;fill-opacity:1;fill-rule:nonzero;stroke:none"
                 d="M 464.23999,73.989998 415.34,448.01999 c -1.26999,9.69 -10.14002,16.51001 -19.82999,15.23999 l -146.91,-19.19998 0.82,-1.98001 c 0.11,0.04 0.22,0.08 0.35001,0.08 l 133.04999,4.20999 c 0.20001,0.01 0.39999,0.01 0.6,0.01 10.03,0 18.35001,-8 18.67002,-18.1 L 414,51.259998 C 414.02,50.709999 413.57999,50.25 413.03,50.23 c -0.02,0 -0.03,0.01 -0.05,0.01 -0.53,0.01 -0.95999,0.419998 -0.98001,0.959999 l -11.92,377.019971 c -0.14002,4.45001 -2.01001,8.59 -5.26001,11.64002 -3.25,3.04998 -7.5,4.64999 -11.95002,4.51001 l -132.67999,-4.19001 0.61,-1.48001 116.12999,-8.58999 c 5.64002,-0.42002 10.78,-3.01001 14.48001,-7.29001 3.69001,-4.28 5.5,-9.75 5.07999,-15.39002 l -6.23001,-84.13 c 0.64999,-1.38001 1.26999,-2.78 1.85998,-4.20001 12.01001,-29.10001 7.79001,-60.85001 -8.47,-85.2 l -14.93994,-202.089951 37.17999,1.179999 c 0.59,0.02 1.18,0.07 1.75,0.139999 0.19001,0.03 0.38001,0.07 0.57001,0.1 0.38001,0.06 0.76001,0.119999 1.12,0.209999 0.22,0.05 0.44,0.119999 0.66,0.18 0.32999,0.09 0.64999,0.18 0.97,0.279999 0.23001,0.08 0.45001,0.169998 0.67999,0.259998 0.29999,0.110001 0.60001,0.23 0.88001,0.360001 0.23001,0.1 0.45001,0.220001 0.67001,0.330002 0.26999,0.139999 0.54999,0.27 0.82001,0.43 0.22,0.119999 0.42999,0.259998 0.64999,0.389999 0.25,0.16 0.51001,0.32 0.75,0.490002 0.21,0.150002 0.42002,0.299999 0.62,0.459999 0.23001,0.18 0.45999,0.360001 0.69,0.549999 0.20001,0.169999 0.39002,0.340001 0.57999,0.520001 0.20999,0.200001 0.42001,0.400001 0.61999,0.599998 0.18,0.189999 0.35999,0.380001 0.54001,0.57 0.19,0.209999 0.37,0.43 0.54999,0.650002 0.17001,0.209999 0.32999,0.409999 0.48999,0.630001 0.17001,0.229999 0.32999,0.459999 0.48999,0.689998 0.14999,0.220001 0.29999,0.450001 0.44,0.669998 0.15,0.240002 0.28,0.490002 0.42002,0.740002 0.13,0.240002 0.26001,0.470001 0.38,0.720001 0.12,0.25 0.23001,0.509999 0.34,0.770001 0.10998,0.25 0.22,0.5 0.32,0.759998 0.10001,0.270001 0.18,0.540001 0.26999,0.810001 0.08,0.259999 0.17002,0.520001 0.25,0.790001 0.08,0.279999 0.13001,0.57 0.19001,0.860001 0.06,0.27 0.11999,0.529999 0.17001,0.799999 0.05,0.310002 0.08,0.630001 0.10998,0.950001 0.03,0.25 0.07,0.5 0.09,0.759998 l 36.01999,4.709999 C 458.67999,55.43 465.5,64.309998 464.23999,73.989998 Z m -214.23,287.499992 -32.46,78.66 L 84.5,450 82.339996,420.85999 c -0.419998,-5.64002 -3.010002,-10.78 -7.290001,-14.48002 -4.279998,-3.69 -9.75,-5.51001 -15.389999,-5.07998 L 26.599995,403.75 0.06,45.080002 C -0.76999998,33.970001 7.5799999,24.299999 18.690001,23.469999 L 137.31,14.69 c 1.94,-0.5 4,-0.66 6.1,-0.45 L 335.12,0.06 c 11.10998,-0.81999999 20.79,7.5199999 21.60998,18.629999 l 0.89999,12.1 c -0.54998,0.04 -0.95999,0.52 -0.92001,1.07 L 371.41995,230.67 c -9.51999,-13.01 -22.61999,-23.64 -38.61999,-30.24001 -27.70999,-11.42999 -57.82001,-8.14999 -81.65,6.22 L 70,220.05 c -0.550003,0.04 -0.959999,0.52001 -0.919998,1.07001 0.04,0.53 0.480003,0.92999 1,0.92999 0.02,0 0.05,0 0.07,0 L 247.57999,208.92 c -9.27001,6.2 -17.45999,14.14 -24.03,23.6 L 71.75,243.75 c -0.550003,0.04 -0.959999,0.52 -0.919998,1.07001 0.04,0.53 0.480003,0.92999 1,0.92999 0.02,0 0.05,0 0.07,0 L 222.12,234.63 c -3.07001,4.7 -5.75,9.75 -7.97001,15.13001 -1.02,2.48 -1.91999,4.97 -2.71,7.48001 L 73.510002,267.45001 c -0.550003,0.04 -0.959999,0.51999 -0.919998,1.07001 0.04,0.53 0.480003,0.92999 1,0.92999 0.02,0 0.05,0 0.07,0 L 210.83,259.30002 c -6.28999,21.76999 -4.03999,44.38 5.11,63.82998 L 78.379997,333.29001 c -0.550003,0.04 -0.959999,0.51999 -0.919998,1.07001 0.04,0.52999 0.480003,0.92999 1,0.92999 0.02,0 0.05,0 0.07,0 L 216.88,325.05002 c 3.75,7.51001 8.54,14.5 14.27001,20.76999 L 80.129997,356.98999 c -0.550003,0.04 -0.959999,0.51999 -0.919998,1.07001 0.04,0.53 0.480003,0.92999 1,0.92999 0.02,0 0.05,0 0.07,0 L 232.91,347.69 c 5.04,5.20999 10.76,9.85001 17.09999,13.79999 z M 278.19,104.09 c -0.04,-0.55001 -0.53,-0.96 -1.07,-0.92 l -104.88001,7.76 c -0.55,0.04 -0.96001,0.52 -0.92,1.07 0.04,0.53 0.48,0.93 1,0.93 0.02,0 0.05,0 0.07,0 l 104.87999,-7.76 c 0.55002,-0.05 0.96002,-0.53 0.92001,-1.08 z M 169.61,89 c 0.04,0.529999 0.48,0.93 1,0.93 0.02,0 0.05,0 0.07,0 L 309.07,79.690002 c 0.54999,-0.04 0.95999,-0.519996 0.92001,-1.069999 -0.04,-0.550003 -0.53,-0.959999 -1.07001,-0.919998 L 170.53,87.93 c -0.55,0.04 -0.95999,0.519997 -0.92,1.07 z m -65.4,60.64 c 24.29999,-1.8 42.54,-22.96 40.74,-47.26 C 143.14999,78.080002 121.99,59.840004 97.690002,61.640003 73.389999,63.440002 55.150002,84.600006 56.950001,108.9 58.75,133.2 79.910004,151.44 104.21,149.64 Z m -35.820001,48.71001 104.879991,-7.76 c 0.55,-0.04 0.96001,-0.52 0.92,-1.07001 -0.04,-0.55 -0.53,-0.97 -1.07001,-0.91999 L 68.239983,196.36 c -0.550003,0.04 -0.959999,0.52 -0.919999,1.07001 0.04,0.53 0.480004,0.92999 1,0.92999 0.02001,-0.01 0.05002,-0.01 0.07001,-0.01 z M 76.769997,311.59 181.64999,303.82999 c 0.55001,-0.04 0.96001,-0.51999 0.92,-1.07001 -0.04,-0.54999 -0.53,-0.95999 -1.07001,-0.92001 l -104.869983,7.76004 c -0.550003,0.04 -0.959999,0.51999 -0.919998,1.07 0.04,0.53 0.480003,0.93 1,0.93 0.01,-0.01 0.04,-0.01 0.06,-0.01 z M 73.75,407.89001 c -3.879997,-3.33999 -8.830002,-4.97 -13.940002,-4.6 l -31.99,2.36999 54.619997,43.56 L 80.349998,421 C 79.970001,415.89001 77.629997,411.23001 73.75,407.89001 Z M 379.91,421.5 c 3.34,-3.88 4.98001,-8.82999 4.60001,-13.94 L 378.53,326.76999 C 359.29999,363.38 317.70001,382.13998 277.91998,373.00998 l -26.25,63.61002 115.13001,-8.51999 C 371.91,427.72 376.56,425.38 379.91,421.5 Z M 352.01999,284.42001 C 349.98999,288.25 333.94,316.19 298.13998,316.19 c -35.79,0 -51.83999,-27.94 -53.88,-31.76999 2.03,-3.82998 18.04001,-31.77 53.88,-31.77 35.80002,-0.01 51.85001,27.92998 53.88001,31.77 z m -29.28998,0 c 0,-13.57998 -11.01001,-24.58999 -24.59,-24.58999 -13.57998,0 -24.58999,11.01001 -24.58999,24.58999 0,13.57999 11.01001,24.59 24.58999,24.59 13.57999,0 24.59,-11.01001 24.59,-24.59 z m -50.47,62.72 c -34.64,-14.29998 -51.14,-53.97 -36.84,-88.60998 14.30001,-34.64 53.97,-51.14 88.61002,-36.84 34.64001,14.30001 51.14001,53.97 36.84,88.61002 -14.29004,34.64996 -53.97004,51.13995 -88.61002,36.83996 z m 25.88,-28.95001 c 39.51999,0 55.73999,-33.01001 55.9,-33.33999 0.13,-0.26999 0.13,-0.59 0,-0.85999 -0.16001,-0.32999 -16.38001,-33.34 -55.9,-33.34 -39.51998,0 -55.74,33.01001 -55.89999,33.34 -0.13,0.26999 -0.13,0.59 0,0.85999 0.15997,0.32998 16.37998,33.33999 55.89999,33.33999 z m 0,-40.79001 c -3.86999,0 -7.01998,3.14002 -7.01998,7.01999 0,3.87 3.14001,7.01999 7.01998,7.01999 3.87,0 7.01999,-3.14001 7.01999,-7.01999 0,-3.87997 -3.14001,-7.01999 -7.01999,-7.01999 z" /></g></g></g><g
           id="g80"><g
             clip-path="url(#clipPath86)"
             id="g82"><g
               clip-path="url(#clipPath92)"
               id="g88"><g
                 clip-path="url(#clipPath98)"
                 id="g94"><g
                   clip-path="url(#clipPath104)"
                   id="g100"><g
                     transform="matrix(6.9566479,0,0,6.9566479,15302.273,2431.6929)"
                     id="g106"><path
                       id="path108"
                       style="fill:#09090b;fill-opacity:1;fill-rule:nonzero;stroke:none"
                       d="M 0,0 H 256 V 256 H 0 Z" /></g></g></g></g></g></g><g
           id="g110"><g
             clip-path="url(#clipPath116)"
             id="g112"><g
               clip-path="url(#clipPath122)"
               id="g118"><g
                 clip-path="url(#clipPath128)"
                 id="g124"><g
                   clip-path="url(#clipPath134)"
                   id="g130"><g
                     clip-path="url(#clipPath140)"
                     id="g136"><g
                       transform="matrix(3.5854743,0,0,3.5854743,15302.273,2431.6926)"
                       id="g142"><path
                         id="path144"
                         style="fill:none;stroke:#cb6ce6;stroke-width:1;stroke-linecap:butt;stroke-linejoin:miter;stroke-miterlimit:10;stroke-dasharray:none;stroke-opacity:1"
                         d="M 248.34375,0 C 111.18729,0 0,111.18729 0,248.34375 0,385.50021 111.18729,496.6875 248.34375,496.6875 385.50021,496.6875 496.6875,385.50021 496.6875,248.34375 496.6875,111.18729 385.50021,0 248.34375,0 Z" /></g></g></g></g></g></g></g><g
           id="g146"><g
             clip-path="url(#clipPath152)"
             id="g148"><g
               transform="matrix(0.28199682,0,0,0.28199682,15628.729,2730.6829)"
               id="g154"><path
                 id="path156"
                 style="fill:#cb6ce6;fill-opacity:1;fill-rule:nonzero;stroke:none"
                 d="m 3573.77,3402.8 v -34.58 c 0,-212.3699 -41.6399,-418.49 -123.76,-612.6399 -79.27,-187.4199 -192.72,-355.71 -337.1899,-500.18 -144.46,-144.4699 -312.75,-257.91 -500.18,-337.1899 -12.32,-5.21 -24.7299,-10.24 -37.1999,-15.14 23.5801,-19.29 46.3,-39.8001 68.05,-61.5601 83.51,-83.51 149.1001,-180.8199 194.95,-289.2099 47.5,-112.31 71.5901,-231.51 71.5901,-354.2801 0,-122.77 -24.0801,-241.96993 -71.5901,-354.27999 -45.8401,-108.39001 -111.44,-205.69 -194.95,-289.20996 -83.52,-83.51999 -180.82,-149.10998 -289.2099,-194.95001 -112.3101,-47.5 -231.51,-71.59 -354.2801,-71.59 -122.77,0 -241.9699,24.09 -354.28,71.59 -108.39,45.84 -205.6899,111.42999 -289.2099,194.95001 -83.5201,83.52002 -149.11,180.82001 -194.95,289.20996 -47.51,112.31 -71.59,231.50999 -71.59,354.27999 0,122.7701 24.09,241.97 71.59,354.2801 45.84,108.39 111.4399,205.69 194.95,289.2099 21.76,21.76 44.4699,42.26 68.05,61.5501 -12.48,4.91 -24.89,9.9499 -37.1999,15.15 -187.43,79.28 -355.72,192.72 -500.18004,337.1899 -144.47003,144.47 -257.91998,312.7601 -337.19,500.18 -82.12,194.1499 -123.75,400.27 -123.75,612.6401 v 34.5801 c 0,161.53 123.96997,294.6401 281.77002,309.22 l 2605.37972,-2.73 0.95,-0.1001 c 27.1001,-2.7901 53.3899,-10.8401 77.4099,-23.7 C 3499.02,3636.52 3573.77,3528.23 3573.77,3402.8 Z M 1329.27,1481.36 c -37.9599,-89.74 -57.2099,-185.07 -57.2099,-283.34 0,-98.27 19.25,-193.6 57.2099,-283.34996 36.6601,-86.67999 89.15,-164.53003 156,-231.38 66.85,-66.84998 144.7,-119.33997 231.38,-156 89.75,-37.95999 185.08,-57.20999 283.35,-57.20999 98.27,0 193.6001,19.25 283.3501,57.20999 86.6799,36.65997 164.53,89.15002 231.3799,156 66.8501,66.84997 119.3401,144.70001 156,231.39001 37.9599,89.73995 57.1999,185.06995 57.1999,283.33995 0,98.27 -19.25,193.6 -57.1999,283.34 -36.6699,86.68 -89.1499,164.53 -156,231.38 -66.8501,66.85 -144.7,119.34 -231.3799,156 -89.75,37.96 -185.0801,57.21 -283.35,57.21 -98.27,0 -193.6,-19.25 -283.35,-57.21 -86.68,-36.66 -164.53,-89.15 -231.38,-156 -66.8501,-66.85 -119.34,-144.7 -156.0001,-231.38 z M 3391.6699,3402.8 c 0,70.8401 -57.6299,128.47 -128.4699,128.47 H 736.78998 c -70.84003,0 -128.47003,-57.6299 -128.47003,-128.47 v -34.58 c 0,-187.8699 36.79998,-370.1199 109.36999,-541.71 70.08997,-165.72 170.44,-314.55 298.23996,-442.3601 127.8001,-127.8 276.63,-228.1499 442.36,-298.24 36.52,-15.4499 74.0501,-29.4599 111.5401,-41.66 0.01,0 0.01,0 0.01,0 13.0699,-4.25 26.38,-8.36 39.55,-12.21 4.9,-1.43 9.57,-3.26 14.02,-5.4 7.3901,3.36 14.8101,6.64 22.3001,9.8101 112.3099,47.51 231.51,71.59 354.28,71.59 122.7702,0 241.9701,-24.09 354.2799,-71.5899 7.49,-3.1701 14.9199,-6.45 22.3101,-9.8101 4.4499,2.14 9.1299,3.97 14.03,5.4 50.98,14.9101 101.8201,33.0301 151.0901,53.8702 165.73,70.1001 314.5601,170.4399 442.3599,298.2399 127.8,127.8101 228.1499,276.6399 298.2399,442.3602 72.5701,171.58 109.3702,353.84 109.3702,541.6999 V 3402.8 Z" /></g></g></g></g><path
         id="path158"
         style="fill:#000000;fill-opacity:0;fill-rule:nonzero;stroke:none"
         d="M 3462.7007,291.34592 H 5311.5003 V 2254.357 H 3462.7007 Z" /><path
         id="path160"
         style="fill:#000000;fill-opacity:0;fill-rule:nonzero;stroke:none"
         d="m 3672.545,1588.8972 h 427.4165 v 427.4165 H 3672.545 Z" /><path
         id="path162"
         style="fill:#000000;fill-opacity:0;fill-rule:nonzero;stroke:none"
         d="m 3779.7207,1711.9996 h 213.0648 v 213.0648 h -213.0648 z" /></g></g></svg>